<svg width="22" height="22" viewBox="0 0 22 22" fill="none" xmlns="http://www.w3.org/2000/svg">
<g id="user-add" clip-path="url(#clip0_6_18)">
<g id="Group">
<path id="Vector" d="M21.0834 10.0833H19.25V8.25C19.25 7.74374 18.8396 7.33334 18.3334 7.33334C17.8271 7.33334 17.4167 7.74374 17.4167 8.25V10.0833H15.5834C15.0771 10.0833 14.6667 10.4937 14.6667 11C14.6667 11.5063 15.0771 11.9166 15.5834 11.9166H17.4167V13.75C17.4167 14.2563 17.8271 14.6666 18.3334 14.6666C18.8396 14.6666 19.25 14.2563 19.25 13.75V11.9166H21.0834C21.5896 11.9166 22 11.5063 22 11C22 10.4937 21.5896 10.0833 21.0834 10.0833Z" fill="#B9B9B9"/>
<path id="Vector_2" d="M8.25 11C11.2876 11 13.75 8.53757 13.75 5.5C13.75 2.46243 11.2876 0 8.25 0C5.21243 0 2.75 2.46243 2.75 5.5C2.75 8.53757 5.21243 11 8.25 11Z" fill="#B9B9B9"/>
<path id="Vector_3" d="M8.25 12.8333C3.69574 12.8384 0.00507031 16.5291 0 21.0833C0 21.5896 0.410395 22 0.916652 22H15.5833C16.0896 22 16.5 21.5896 16.5 21.0833C16.4949 16.5291 12.8043 12.8384 8.25 12.8333Z" fill="#B9B9B9"/>
</g>
</g>
<defs>
<clipPath id="clip0_6_18">
<rect width="22" height="22" fill="white"/>
</clipPath>
</defs>
</svg>
